<svg width="100" height="100" viewBox="0 0 100 100" fill="none" xmlns="http://www.w3.org/2000/svg">
<path d="M59.9062 16.0502C60.5168 16.4058 60.9889 16.9578 61.2454 17.6161C61.5019 18.2745 61.5278 19.0003 61.3187 19.6752L54.2312 42.7002H66.6687C67.2791 42.7 67.8761 42.8785 68.3862 43.2137C68.8963 43.5489 69.297 44.0261 69.539 44.5864C69.7809 45.1468 69.8535 45.7657 69.7477 46.3668C69.6419 46.9679 69.3624 47.5249 68.9437 47.969L35.6062 83.3877C35.1225 83.9022 34.4787 84.2376 33.7798 84.3393C33.081 84.441 32.3683 84.303 31.7579 83.9478C31.1476 83.5926 30.6755 83.0412 30.4187 82.3833C30.1619 81.7255 30.1355 81 30.3437 80.3252L37.4375 57.294H25C24.3897 57.2942 23.7926 57.1157 23.2825 56.7805C22.7725 56.4453 22.3717 55.9681 22.1298 55.4078C21.8878 54.8474 21.8153 54.2285 21.921 53.6274C22.0268 53.0263 22.3063 52.4693 22.725 52.0252L56.0562 16.6065C56.5398 16.0912 57.1838 15.7551 57.883 15.653C58.5822 15.5508 59.2954 15.6886 59.9062 16.044V16.0502Z" fill="#F0F8FF"/>
<path d="M12.5 25H39.575L33.7 31.25H12.5C10.8424 31.25 9.25268 31.9085 8.08058 33.0806C6.90848 34.2527 6.25 35.8424 6.25 37.5V62.5C6.25 64.1576 6.90848 65.7473 8.08058 66.9194C9.25268 68.0915 10.8424 68.75 12.5 68.75H27.375L25.45 75H12.5C9.18479 75 6.00537 73.683 3.66117 71.3388C1.31696 68.9946 0 65.8152 0 62.5V37.5C0 34.1848 1.31696 31.0054 3.66117 28.6612C6.00537 26.317 9.18479 25 12.5 25V25Z" fill="#F0F8FF"/>
<path d="M12.5 37.5H27.8125L18.175 47.7437C17.1804 48.8009 16.4449 50.0745 16.0264 51.4643C15.6078 52.8541 15.5177 54.3221 15.7631 55.7527C16.0085 57.1833 16.5827 58.5373 17.4405 59.7082C18.2983 60.879 19.4162 61.8347 20.7062 62.5H12.5V37.5ZM66.2188 25L64.2937 31.25H75C76.6576 31.25 78.2473 31.9085 79.4194 33.0806C80.5915 34.2527 81.25 35.8424 81.25 37.5V62.5C81.25 64.1576 80.5915 65.7473 79.4194 66.9194C78.2473 68.0915 76.6576 68.75 75 68.75H57.975L52.0875 75H75C78.3152 75 81.4946 73.683 83.8388 71.3388C86.183 68.9946 87.5 65.8152 87.5 62.5V37.5C87.5 34.1848 86.183 31.0054 83.8388 28.6612C81.4946 26.317 78.3152 25 75 25H66.2188Z" fill="#F0F8FF"/>
<path d="M75 62.5H63.8562L73.4937 52.2563C74.1 51.6125 74.6062 50.8937 75 50.1312V62.5ZM75 41.5375V37.5H70.9625C72.6954 38.3933 74.1067 39.8046 75 41.5375ZM100 50C100 52.4864 99.0123 54.871 97.2541 56.6291C95.496 58.3873 93.1114 59.375 90.625 59.375V40.625C93.1114 40.625 95.496 41.6127 97.2541 43.3709C99.0123 45.129 100 47.5136 100 50Z" fill="#F0F8FF"/>
</svg>
