<svg width="100" height="100" viewBox="0 0 100 100" fill="none" xmlns="http://www.w3.org/2000/svg">
<g clip-path="url(#clip0_405_8)">
<path d="M12.5 37.5H75V62.5H12.5V37.5Z" fill="#F0F8FF"/>
<path d="M12.5 25C9.18479 25 6.00537 26.317 3.66117 28.6612C1.31696 31.0054 0 34.1848 0 37.5L0 62.5C0 65.8152 1.31696 68.9946 3.66117 71.3388C6.00537 73.683 9.18479 75 12.5 75H75C78.3152 75 81.4946 73.683 83.8388 71.3388C86.183 68.9946 87.5 65.8152 87.5 62.5V37.5C87.5 34.1848 86.183 31.0054 83.8388 28.6612C81.4946 26.317 78.3152 25 75 25H12.5ZM75 31.25C76.6576 31.25 78.2473 31.9085 79.4194 33.0806C80.5915 34.2527 81.25 35.8424 81.25 37.5V62.5C81.25 64.1576 80.5915 65.7473 79.4194 66.9194C78.2473 68.0915 76.6576 68.75 75 68.75H12.5C10.8424 68.75 9.25268 68.0915 8.08058 66.9194C6.90848 65.7473 6.25 64.1576 6.25 62.5V37.5C6.25 35.8424 6.90848 34.2527 8.08058 33.0806C9.25268 31.9085 10.8424 31.25 12.5 31.25H75ZM100 50C100 52.4864 99.0123 54.871 97.2541 56.6291C95.496 58.3873 93.1114 59.375 90.625 59.375V40.625C93.1114 40.625 95.496 41.6127 97.2541 43.3709C99.0123 45.129 100 47.5136 100 50Z" fill="#F0F8FF"/>
</g>
<defs>
<clipPath id="clip0_405_8">
<rect width="100" height="100" fill="white"/>
</clipPath>
</defs>
</svg>
