<svg width="120" height="120" viewBox="0 0 120 120" fill="none" xmlns="http://www.w3.org/2000/svg">
<path d="M91.25 35C87.793 35 85 32.207 85 28.75C85 25.293 87.793 22.5 91.25 22.5C94.707 22.5 97.5 25.293 97.5 28.75C97.5 32.207 94.707 35 91.25 35ZM91.25 47.5C101.602 47.5 110 39.1016 110 28.75C110 18.3984 101.602 10 91.25 10C80.8984 10 72.5 18.3984 72.5 28.75C72.5 39.1016 80.8984 47.5 91.25 47.5ZM28.75 31.875C28.75 26.6992 32.9492 22.5 38.125 22.5C43.3008 22.5 47.5 26.6992 47.5 31.875V64.0039C47.5 67.3828 48.8867 70.2344 50.4883 72.3047C52.5391 74.9609 53.75 78.2617 53.75 81.875C53.75 90.5078 46.7578 97.5 38.125 97.5C29.4922 97.5 22.5 90.5078 22.5 81.875C22.5 78.2617 23.7109 74.9609 25.7617 72.3242C27.3633 70.2344 28.75 67.3828 28.75 64.0039V31.875ZM38.125 10C26.0352 10 16.25 19.8047 16.25 31.875V64.0039C16.25 64.0234 16.2305 64.0625 16.2109 64.1211C16.1719 64.2383 16.0547 64.4336 15.8789 64.668C12.1875 69.4141 10 75.3906 10 81.875C10 97.4023 22.5977 110 38.125 110C53.6523 110 66.25 97.4023 66.25 81.875C66.25 75.3906 64.043 69.4141 60.3711 64.668C60.1953 64.4336 60.0781 64.2383 60.0391 64.1211C60.0195 64.0625 60 64.0234 60 64.0039V31.875C60 19.8047 50.2148 10 38.125 10ZM38.125 91.25C43.3008 91.25 47.5 87.0508 47.5 81.875C47.5 77.793 44.8828 74.3164 41.25 73.0273V31.875C41.25 30.1562 39.8438 28.75 38.125 28.75C36.4062 28.75 35 30.1562 35 31.875V73.0273C31.3672 74.3164 28.75 77.793 28.75 81.875C28.75 87.0508 32.9492 91.25 38.125 91.25Z" fill="#F0F8FF"/>
</svg>
